# xmcd
#
# Track frame offsets:
# 150
# 9988
# 21229
# 33441
# 47020
# 58322
# 70025
# 83826
# 95677
# 106716
# 122323
#
# Disc length: 1782 seconds
#
#
# Revision: 0
# Processed by: cddbd v1.4PL0 Copyright (c) Steve Scherf et al.
# Submitted via: FreeRIP 2.00 
#
DISCID=8106f40b
DTITLE=Merle Haggard - Keep Movin' On
DYEAR=1975
DGENRE=Country
TTITLE0=Movin' On
TTITLE1=Life's Like Poetry
TTITLE2=I've Got A Darlin' (For A Wife)
TTITLE3=These Mem'ries We're Making Tonight
TTITLE4=You'll Always Be Special
TTITLE5=September In Miami
TTITLE6=Always Wanting You
TTITLE7=Kentucky Gambler
TTITLE8=Here In Frisco
TTITLE9=I've Got A Yearning
TTITLE10=A Man's Gotta Give Up A Lot
EXTD=Capitol ST 11365
EXTT0=
EXTT1=
EXTT2=
EXTT3=
EXTT4=
EXTT5=
EXTT6=
EXTT7=
EXTT8=
EXTT9=
EXTT10=
PLAYORDER=
